<?xml version="1.0" standalone="no"?>
<!DOCTYPE svg PUBLIC "-//W3C//DTD SVG 20010904//EN"
 "http://www.w3.org/TR/2001/REC-SVG-20010904/DTD/svg10.dtd">
<svg version="1.0" xmlns="http://www.w3.org/2000/svg"
 width="206.000000pt" height="206.000000pt" viewBox="0 0 206.000000 206.000000"
 preserveAspectRatio="xMidYMid meet">
<metadata>
Created by potrace 1.11, written by Peter Selinger 2001-2013
</metadata>
<g transform="translate(0.000000,206.000000) scale(0.100000,-0.100000)"
fill="#000000" stroke="none">
<path d="M0 1030 l0 -1030 1030 0 1030 0 0 1030 0 1030 -1030 0 -1030 0 0
-1030z m405 830 c3 -5 1 -10 -4 -10 -6 0 -11 5 -11 10 0 6 2 10 4 10 3 0 8 -4
11 -10z m754 -291 c13 -23 12 -30 -8 -72 -17 -35 -38 -56 -81 -84 -56 -36 -59
-40 -65 -88 -5 -43 -23 -307 -21 -312 1 0 132 1 292 4 l291 6 12 101 c30 242
118 386 238 386 57 0 83 -14 83 -45 0 -23 -3 -24 -55 -23 -41 1 -62 -4 -83
-19 -60 -44 -107 -174 -119 -324 l-6 -79 101 0 c92 0 101 -2 107 -20 3 -11 3
-24 0 -30 -4 -6 -52 -10 -112 -10 l-106 0 7 -112 c9 -142 27 -238 61 -323 29
-71 27 -95 -4 -95 -58 0 -121 230 -121 439 l0 93 -292 -7 c-161 -4 -296 -9
-300 -12 -5 -2 -8 -14 -8 -27 0 -41 -41 -178 -71 -238 -81 -161 -230 -238
-432 -225 -144 9 -285 73 -346 158 -24 33 -28 45 -20 60 5 11 15 19 21 19 6 0
39 -27 74 -59 71 -67 139 -97 244 -110 252 -31 407 95 459 374 l9 48 -77 -5
c-91 -6 -101 -3 -101 27 0 27 17 35 73 35 23 0 58 3 78 6 l37 6 6 112 c4 61 9
138 12 172 l6 60 -80 1 c-44 1 -165 16 -268 33 -218 37 -291 37 -379 -4 -58
-26 -90 -65 -101 -123 -9 -49 2 -79 47 -128 60 -65 37 -114 -31 -65 -111 79
-107 259 9 347 93 72 224 81 488 33 92 -17 201 -30 244 -30 l79 0 28 63 c36
80 81 119 131 115 26 -2 39 -10 50 -29z"/>
<path d="M1073 1517 c-27 -30 -36 -47 -24 -47 11 0 55 59 49 66 -3 2 -14 -6
-25 -19z"/>
</g>
</svg>
